<svg width="128" height="128" viewBox="0 0 128 128" fill="none" xmlns="http://www.w3.org/2000/svg">
<rect width="128" height="128" rx="20" fill="#F5F5F5"/>
<g>
<path d="M50.709 65.0036V63.0375C50.709 56.6477 51.9787 51.2 54.5183 46.6944C57.0578 42.1069 60.4165 38.6253 64.5944 36.2496C68.8543 33.792 73.4827 32.5632 78.4799 32.5632C84.0504 32.5632 88.2693 33.5463 91.1365 35.5124C94.0037 37.4784 96.0927 39.5264 97.4034 41.6564H99.6152V34.2836H114.852V106.045C114.852 110.223 113.624 113.541 111.166 115.999C108.708 118.538 105.432 119.808 101.336 119.808H60.5394V106.291H95.9288C98.2226 106.291 99.3695 105.062 99.3695 102.605V86.7533H97.1576C96.3384 88.064 95.1916 89.4157 93.717 90.8084C92.2424 92.1191 90.2763 93.225 87.8187 94.1261C85.3611 95.0272 82.2482 95.4778 78.4799 95.4778C73.4827 95.4778 68.8543 94.29 64.5944 91.9143C60.4165 89.4567 57.0578 85.9751 54.5183 81.4695C51.9787 76.882 50.709 71.3933 50.709 65.0036ZM82.9035 81.961C87.6549 81.961 91.628 80.4455 94.8229 77.4144C98.0178 74.3834 99.6152 70.1236 99.6152 64.6349V63.4061C99.6152 57.8356 98.0178 53.5757 94.8229 50.6266C91.7099 47.5956 87.7368 46.08 82.9035 46.08C78.1522 46.08 74.1791 47.5956 70.9842 50.6266C67.7893 53.5757 66.1919 57.8356 66.1919 63.4061V64.6349C66.1919 70.1236 67.7893 74.3834 70.9842 77.4144C74.1791 80.4455 78.1522 81.961 82.9035 81.961Z" fill="#34B87E"/>
</g>
<g>
<path d="M39.0352 96.9524C31.0889 96.9524 24.5763 95.232 19.4973 91.7914C14.4182 88.3508 11.3462 83.4356 10.2812 77.0458L24.5353 73.3594C25.1088 76.2266 26.0509 78.4794 27.3616 80.1178C28.7542 81.7562 30.4336 82.944 32.3997 83.6813C34.4477 84.3367 36.6595 84.6644 39.0352 84.6644C42.6397 84.6644 45.3021 84.05 47.0224 82.8212C48.7427 81.5104 49.6029 79.913 49.6029 78.0288C49.6029 76.1447 48.7837 74.7111 47.1453 73.728C45.5069 72.6631 42.8854 71.8029 39.2809 71.1476L35.8403 70.5332C31.5805 69.714 27.6893 68.608 24.1667 67.2154C20.6441 65.7408 17.8179 63.7338 15.688 61.1943C13.558 58.6548 12.4931 55.378 12.4931 51.3639C12.4931 45.3018 14.7049 40.6733 19.1286 37.4784C23.5523 34.2016 29.3686 32.5632 36.5776 32.5632C43.3769 32.5632 49.0294 34.0788 53.535 37.1098C58.0406 40.1408 60.9897 44.114 62.3824 49.0292L48.0054 53.4528C47.3501 50.3399 45.9984 48.128 43.9504 46.8173C41.9843 45.5066 39.5267 44.8512 36.5776 44.8512C33.6285 44.8512 31.3757 45.3837 29.8192 46.4487C28.2627 47.4317 27.4845 48.8244 27.4845 50.6266C27.4845 52.5927 28.3037 54.0672 29.9421 55.0503C31.5805 55.9514 33.7923 56.6477 36.5776 57.1392L40.0182 57.7536C44.6057 58.5728 48.7427 59.6788 52.4291 61.0714C56.1974 62.3821 59.1465 64.3072 61.2765 66.8468C63.4883 69.3044 64.5942 72.6631 64.5942 76.9229C64.5942 83.3127 62.2595 88.2688 57.5901 91.7914C53.0025 95.232 46.8176 96.9524 39.0352 96.9524Z" fill="#151718"/>
</g></svg>
