<svg width="524" height="140" viewBox="0 0 524 140" fill="none" xmlns="http://www.w3.org/2000/svg">
<g>
<path d="M306 86.48V84.56C306 78.32 307.24 73 309.72 68.6C312.2 64.12 315.48 60.72 319.56 58.4C323.72 56 328.24 54.8 333.12 54.8C338.56 54.8 342.68 55.76 345.48 57.68C348.28 59.6 350.32 61.6 351.6 63.68H353.76V56.48H368.64V126.56C368.64 130.64 367.44 133.88 365.04 136.28C362.64 138.76 359.44 140 355.44 140H315.6V126.8H350.16C352.4 126.8 353.52 125.6 353.52 123.2V107.72H351.36C350.56 109 349.44 110.32 348 111.68C346.56 112.96 344.64 114.04 342.24 114.92C339.84 115.8 336.8 116.24 333.12 116.24C328.24 116.24 323.72 115.08 319.56 112.76C315.48 110.36 312.2 106.96 309.72 102.56C307.24 98.08 306 92.72 306 86.48ZM337.44 103.04C342.08 103.04 345.96 101.56 349.08 98.6C352.2 95.64 353.76 91.48 353.76 86.12V84.92C353.76 79.48 352.2 75.32 349.08 72.44C346.04 69.48 342.16 68 337.44 68C332.8 68 328.92 69.48 325.8 72.44C322.68 75.32 321.12 79.48 321.12 84.92V86.12C321.12 91.48 322.68 95.64 325.8 98.6C328.92 101.56 332.8 103.04 337.44 103.04Z" fill="#34B87E"/>
<path d="M373.403 116V56.48H388.283V63.2H390.443C391.323 60.8 392.763 59.04 394.763 57.92C396.843 56.8 399.243 56.24 401.963 56.24H409.163V69.68H401.723C397.883 69.68 394.723 70.72 392.243 72.8C389.763 74.8 388.523 77.92 388.523 82.16V116H373.403Z" fill="#34B87E"/>
<path d="M426.055 117.68C421.815 117.68 418.015 116.96 414.655 115.52C411.295 114 408.615 111.84 406.615 109.04C404.695 106.16 403.735 102.68 403.735 98.6C403.735 94.52 404.695 91.12 406.615 88.4C408.615 85.6 411.335 83.52 414.775 82.16C418.295 80.72 422.295 80 426.775 80H443.095V76.64C443.095 73.84 442.215 71.56 440.455 69.8C438.695 67.96 435.895 67.04 432.055 67.04C428.295 67.04 425.495 67.92 423.655 69.68C421.815 71.36 420.615 73.56 420.055 76.28L406.135 71.6C407.095 68.56 408.615 65.8 410.695 63.32C412.855 60.76 415.695 58.72 419.215 57.2C422.815 55.6 427.175 54.8 432.295 54.8C440.135 54.8 446.335 56.76 450.895 60.68C455.455 64.6 457.735 70.28 457.735 77.72V99.92C457.735 102.32 458.855 103.52 461.095 103.52H465.895V116H455.815C452.855 116 450.415 115.28 448.495 113.84C446.575 112.4 445.615 110.48 445.615 108.08V107.96H443.335C443.015 108.92 442.295 110.2 441.175 111.8C440.055 113.32 438.295 114.68 435.895 115.88C433.495 117.08 430.215 117.68 426.055 117.68ZM428.695 105.44C432.935 105.44 436.375 104.28 439.015 101.96C441.735 99.56 443.095 96.4 443.095 92.48V91.28H427.855C425.055 91.28 422.855 91.88 421.255 93.08C419.655 94.28 418.855 95.96 418.855 98.12C418.855 100.28 419.695 102.04 421.375 103.4C423.055 104.76 425.495 105.44 428.695 105.44Z" fill="#34B87E"/>
<path d="M487.778 117.68C483.058 117.68 478.618 116.52 474.458 114.2C470.378 111.8 467.098 108.32 464.618 103.76C462.138 99.2 460.898 93.68 460.898 87.2V85.28C460.898 78.8 462.138 73.28 464.618 68.72C467.098 64.16 470.378 60.72 474.458 58.4C478.538 56 482.978 54.8 487.778 54.8C491.378 54.8 494.378 55.24 496.778 56.12C499.258 56.92 501.258 57.96 502.778 59.24C504.298 60.52 505.458 61.88 506.258 63.32H508.418V32H523.538V116H508.658V108.8H506.498C505.138 111.04 503.018 113.08 500.138 114.92C497.338 116.76 493.218 117.68 487.778 117.68ZM492.338 104.48C496.978 104.48 500.858 103 503.978 100.04C507.098 97 508.658 92.6 508.658 86.84V85.64C508.658 79.88 507.098 75.52 503.978 72.56C500.938 69.52 497.058 68 492.338 68C487.698 68 483.818 69.52 480.698 72.56C477.578 75.52 476.018 79.88 476.018 85.64V86.84C476.018 92.6 477.578 97 480.698 100.04C483.818 103 487.698 104.48 492.338 104.48Z" fill="#34B87E"/>
</g>
<g>
<path d="M29.08 87.36C21.32 87.36 14.96 85.68 10 82.32C5.04 78.96 2.04 74.16 1 67.92L14.92 64.32C15.48 67.12 16.4 69.32 17.68 70.92C19.04 72.52 20.68 73.68 22.6 74.4C24.6 75.04 26.76 75.36 29.08 75.36C32.6 75.36 35.2 74.76 36.88 73.56C38.56 72.28 39.4 70.72 39.4 68.88C39.4 67.04 38.6 65.64 37 64.68C35.4 63.64 32.84 62.8 29.32 62.16L25.96 61.56C21.8 60.76 18 59.68 14.56 58.32C11.12 56.88 8.36 54.92 6.28 52.44C4.2 49.96 3.16 46.76 3.16 42.84C3.16 36.92 5.32 32.4 9.64 29.28C13.96 26.08 19.64 24.48 26.68 24.48C33.32 24.48 38.84 25.96 43.24 28.92C47.64 31.88 50.52 35.76 51.88 40.56L37.84 44.88C37.2 41.84 35.88 39.68 33.88 38.4C31.96 37.12 29.56 36.48 26.68 36.48C23.8 36.48 21.6 37 20.08 38.04C18.56 39 17.8 40.36 17.8 42.12C17.8 44.04 18.6 45.48 20.2 46.44C21.8 47.32 23.96 48 26.68 48.48L30.04 49.08C34.52 49.88 38.56 50.96 42.16 52.32C45.84 53.6 48.72 55.48 50.8 57.96C52.96 60.36 54.04 63.64 54.04 67.8C54.04 74.04 51.76 78.88 47.2 82.32C42.72 85.68 36.68 87.36 29.08 87.36Z" fill="#151718"/>
<path d="M55.2897 85.68V26.16H70.4097V85.68H55.2897ZM62.8497 19.2C60.1297 19.2 57.8097 18.32 55.8897 16.56C54.0497 14.8 53.1297 12.48 53.1297 9.60001C53.1297 6.72 54.0497 4.4 55.8897 2.64C57.8097 0.880001 60.1297 0 62.8497 0C65.6497 0 67.9697 0.880001 69.8097 2.64C71.6497 4.4 72.5697 6.72 72.5697 9.60001C72.5697 12.48 71.6497 14.8 69.8097 16.56C67.9697 18.32 65.6497 19.2 62.8497 19.2Z" fill="#151718"/>
<path d="M75.1647 85.68V26.16H90.0447V32.64H92.2047C93.2447 30.64 94.9647 28.92 97.3647 27.48C99.7647 25.96 102.925 25.2 106.845 25.2C111.085 25.2 114.485 26.04 117.045 27.72C119.605 29.32 121.565 31.44 122.925 34.08H125.085C126.445 31.52 128.365 29.4 130.845 27.72C133.325 26.04 136.845 25.2 141.405 25.2C145.085 25.2 148.405 26 151.365 27.6C154.405 29.12 156.805 31.48 158.565 34.68C160.405 37.8 161.325 41.76 161.325 46.56V85.68H146.205V47.64C146.205 44.36 145.365 41.92 143.685 40.32C142.005 38.64 139.645 37.8 136.605 37.8C133.165 37.8 130.485 38.92 128.565 41.16C126.725 43.32 125.805 46.44 125.805 50.52V85.68H110.685V47.64C110.685 44.36 109.845 41.92 108.165 40.32C106.485 38.64 104.125 37.8 101.085 37.8C97.6447 37.8 94.9647 38.92 93.0447 41.16C91.2047 43.32 90.2847 46.44 90.2847 50.52V85.68H75.1647Z" fill="#151718"/>
<path d="M165.587 109.68V26.16H180.467V33.36H182.627C183.987 31.04 186.107 29 188.987 27.24C191.867 25.4 195.987 24.48 201.347 24.48C206.147 24.48 210.587 25.68 214.667 28.08C218.747 30.4 222.027 33.84 224.507 38.4C226.987 42.96 228.227 48.48 228.227 54.96V56.88C228.227 63.36 226.987 68.88 224.507 73.44C222.027 78 218.747 81.48 214.667 83.88C210.587 86.2 206.147 87.36 201.347 87.36C197.747 87.36 194.707 86.92 192.227 86.04C189.827 85.24 187.867 84.2 186.347 82.92C184.907 81.56 183.747 80.2 182.867 78.84H180.707V109.68H165.587ZM196.787 74.16C201.507 74.16 205.387 72.68 208.427 69.72C211.547 66.68 213.107 62.28 213.107 56.52V55.32C213.107 49.56 211.547 45.2 208.427 42.24C205.307 39.2 201.427 37.68 196.787 37.68C192.147 37.68 188.267 39.2 185.147 42.24C182.027 45.2 180.467 49.56 180.467 55.32V56.52C180.467 62.28 182.027 66.68 185.147 69.72C188.267 72.68 192.147 74.16 196.787 74.16Z" fill="#151718"/>
<path d="M230.11 85.68V1.68H245.23V85.68H230.11Z" fill="#151718"/>
<path d="M277.105 87.36C271.185 87.36 265.945 86.12 261.385 83.64C256.905 81.08 253.385 77.52 250.825 72.96C248.345 68.32 247.105 62.88 247.105 56.64V55.2C247.105 48.96 248.345 43.56 250.825 39C253.305 34.36 256.785 30.8 261.265 28.32C265.745 25.76 270.945 24.48 276.865 24.48C282.705 24.48 287.785 25.8 292.105 28.44C296.425 31 299.785 34.6 302.185 39.24C304.585 43.8 305.785 49.12 305.785 55.2V60.36H262.465C262.625 64.44 264.145 67.76 267.025 70.32C269.905 72.88 273.425 74.16 277.585 74.16C281.825 74.16 284.945 73.24 286.945 71.4C288.945 69.56 290.465 67.52 291.505 65.28L303.865 71.76C302.745 73.84 301.105 76.12 298.945 78.6C296.865 81 294.065 83.08 290.545 84.84C287.025 86.52 282.545 87.36 277.105 87.36ZM262.585 49.08H290.425C290.105 45.64 288.705 42.88 286.225 40.8C283.825 38.72 280.665 37.68 276.745 37.68C272.665 37.68 269.425 38.72 267.025 40.8C264.625 42.88 263.145 45.64 262.585 49.08Z" fill="#151718"/>
</g></svg>
