<svg width="587" height="118" viewBox="0 0 587 118" fill="none" xmlns="http://www.w3.org/2000/svg">
<g>
<path d="M345.76 117.68C340.4 117.68 336.28 116.76 333.4 114.92C330.52 113.08 328.4 111.04 327.04 108.8H324.88V116H310V32H325.12V63.32H327.28C328.16 61.88 329.32 60.52 330.76 59.24C332.28 57.96 334.24 56.92 336.64 56.12C339.12 55.24 342.16 54.8 345.76 54.8C350.56 54.8 355 56 359.08 58.4C363.16 60.72 366.44 64.16 368.92 68.72C371.4 73.28 372.64 78.8 372.64 85.28V87.2C372.64 93.68 371.4 99.2 368.92 103.76C366.44 108.32 363.16 111.8 359.08 114.2C355 116.52 350.56 117.68 345.76 117.68ZM341.2 104.48C345.84 104.48 349.72 103 352.84 100.04C355.96 97 357.52 92.6 357.52 86.84V85.64C357.52 79.88 355.96 75.52 352.84 72.56C349.8 69.52 345.92 68 341.2 68C336.56 68 332.68 69.52 329.56 72.56C326.44 75.52 324.88 79.88 324.88 85.64V86.84C324.88 92.6 326.44 97 329.56 100.04C332.68 103 336.56 104.48 341.2 104.48Z" fill="#4474B8"/>
<path d="M402.843 117.68C396.923 117.68 391.603 116.48 386.883 114.08C382.163 111.68 378.443 108.2 375.723 103.64C373.003 99.08 371.643 93.6 371.643 87.2V85.28C371.643 78.88 373.003 73.4 375.723 68.84C378.443 64.28 382.163 60.8 386.883 58.4C391.603 56 396.923 54.8 402.843 54.8C408.763 54.8 414.083 56 418.803 58.4C423.523 60.8 427.243 64.28 429.963 68.84C432.683 73.4 434.043 78.88 434.043 85.28V87.2C434.043 93.6 432.683 99.08 429.963 103.64C427.243 108.2 423.523 111.68 418.803 114.08C414.083 116.48 408.763 117.68 402.843 117.68ZM402.843 104.24C407.483 104.24 411.323 102.76 414.363 99.8C417.403 96.76 418.923 92.44 418.923 86.84V85.64C418.923 80.04 417.403 75.76 414.363 72.8C411.403 69.76 407.563 68.24 402.843 68.24C398.203 68.24 394.363 69.76 391.323 72.8C388.283 75.76 386.763 80.04 386.763 85.64V86.84C386.763 92.44 388.283 96.76 391.323 99.8C394.363 102.76 398.203 104.24 402.843 104.24Z" fill="#4474B8"/>
<path d="M454.48 117.68C450.24 117.68 446.44 116.96 443.08 115.52C439.72 114 437.04 111.84 435.04 109.04C433.12 106.16 432.16 102.68 432.16 98.6C432.16 94.52 433.12 91.12 435.04 88.4C437.04 85.6 439.76 83.52 443.2 82.16C446.72 80.72 450.72 80 455.2 80H471.52V76.64C471.52 73.84 470.64 71.56 468.88 69.8C467.12 67.96 464.32 67.04 460.48 67.04C456.72 67.04 453.92 67.92 452.08 69.68C450.24 71.36 449.04 73.56 448.48 76.28L434.56 71.6C435.52 68.56 437.04 65.8 439.12 63.32C441.28 60.76 444.12 58.72 447.64 57.2C451.24 55.6 455.6 54.8 460.72 54.8C468.56 54.8 474.76 56.76 479.32 60.68C483.88 64.6 486.16 70.28 486.16 77.72V99.92C486.16 102.32 487.28 103.52 489.52 103.52H494.32V116H484.24C481.28 116 478.84 115.28 476.92 113.84C475 112.4 474.04 110.48 474.04 108.08V107.96H471.76C471.44 108.92 470.72 110.2 469.6 111.8C468.48 113.32 466.72 114.68 464.32 115.88C461.92 117.08 458.64 117.68 454.48 117.68ZM457.12 105.44C461.36 105.44 464.8 104.28 467.44 101.96C470.16 99.56 471.52 96.4 471.52 92.48V91.28H456.28C453.48 91.28 451.28 91.88 449.68 93.08C448.08 94.28 447.28 95.96 447.28 98.12C447.28 100.28 448.12 102.04 449.8 103.4C451.48 104.76 453.92 105.44 457.12 105.44Z" fill="#4474B8"/>
<path d="M493.375 116V56.48H508.255V63.2H510.415C511.295 60.8 512.735 59.04 514.735 57.92C516.815 56.8 519.215 56.24 521.935 56.24H529.135V69.68H521.695C517.855 69.68 514.695 70.72 512.215 72.8C509.735 74.8 508.495 77.92 508.495 82.16V116H493.375Z" fill="#4474B8"/>
<path d="M550.844 117.68C546.124 117.68 541.684 116.52 537.524 114.2C533.444 111.8 530.164 108.32 527.684 103.76C525.204 99.2 523.964 93.68 523.964 87.2V85.28C523.964 78.8 525.204 73.28 527.684 68.72C530.164 64.16 533.444 60.72 537.524 58.4C541.604 56 546.044 54.8 550.844 54.8C554.444 54.8 557.444 55.24 559.844 56.12C562.324 56.92 564.324 57.96 565.844 59.24C567.364 60.52 568.524 61.88 569.324 63.32H571.484V32H586.604V116H571.724V108.8H569.564C568.204 111.04 566.084 113.08 563.204 114.92C560.404 116.76 556.284 117.68 550.844 117.68ZM555.404 104.48C560.044 104.48 563.924 103 567.044 100.04C570.164 97 571.724 92.6 571.724 86.84V85.64C571.724 79.88 570.164 75.52 567.044 72.56C564.004 69.52 560.124 68 555.404 68C550.764 68 546.884 69.52 543.764 72.56C540.644 75.52 539.084 79.88 539.084 85.64V86.84C539.084 92.6 540.644 97 543.764 100.04C546.884 103 550.764 104.48 555.404 104.48Z" fill="#4474B8"/>
</g>
<g>
<path d="M29.08 87.36C21.32 87.36 14.96 85.68 10 82.32C5.04 78.96 2.04 74.16 1 67.92L14.92 64.32C15.48 67.12 16.4 69.32 17.68 70.92C19.04 72.52 20.68 73.68 22.6 74.4C24.6 75.04 26.76 75.36 29.08 75.36C32.6 75.36 35.2 74.76 36.88 73.56C38.56 72.28 39.4 70.72 39.4 68.88C39.4 67.04 38.6 65.64 37 64.68C35.4 63.64 32.84 62.8 29.32 62.16L25.96 61.56C21.8 60.76 18 59.68 14.56 58.32C11.12 56.88 8.36 54.92 6.28 52.44C4.2 49.96 3.16 46.76 3.16 42.84C3.16 36.92 5.32 32.4 9.64 29.28C13.96 26.08 19.64 24.48 26.68 24.48C33.32 24.48 38.84 25.96 43.24 28.92C47.64 31.88 50.52 35.76 51.88 40.56L37.84 44.88C37.2 41.84 35.88 39.68 33.88 38.4C31.96 37.12 29.56 36.48 26.68 36.48C23.8 36.48 21.6 37 20.08 38.04C18.56 39 17.8 40.36 17.8 42.12C17.8 44.04 18.6 45.48 20.2 46.44C21.8 47.32 23.96 48 26.68 48.48L30.04 49.08C34.52 49.88 38.56 50.96 42.16 52.32C45.84 53.6 48.72 55.48 50.8 57.96C52.96 60.36 54.04 63.64 54.04 67.8C54.04 74.04 51.76 78.88 47.2 82.32C42.72 85.68 36.68 87.36 29.08 87.36Z" fill="#151718"/>
<path d="M55.2897 85.68V26.16H70.4097V85.68H55.2897ZM62.8497 19.2C60.1297 19.2 57.8097 18.32 55.8897 16.56C54.0497 14.8 53.1297 12.48 53.1297 9.60001C53.1297 6.72 54.0497 4.4 55.8897 2.64C57.8097 0.880001 60.1297 0 62.8497 0C65.6497 0 67.9697 0.880001 69.8097 2.64C71.6497 4.4 72.5697 6.72 72.5697 9.60001C72.5697 12.48 71.6497 14.8 69.8097 16.56C67.9697 18.32 65.6497 19.2 62.8497 19.2Z" fill="#151718"/>
<path d="M75.1647 85.68V26.16H90.0447V32.64H92.2047C93.2447 30.64 94.9647 28.92 97.3647 27.48C99.7647 25.96 102.925 25.2 106.845 25.2C111.085 25.2 114.485 26.04 117.045 27.72C119.605 29.32 121.565 31.44 122.925 34.08H125.085C126.445 31.52 128.365 29.4 130.845 27.72C133.325 26.04 136.845 25.2 141.405 25.2C145.085 25.2 148.405 26 151.365 27.6C154.405 29.12 156.805 31.48 158.565 34.68C160.405 37.8 161.325 41.76 161.325 46.56V85.68H146.205V47.64C146.205 44.36 145.365 41.92 143.685 40.32C142.005 38.64 139.645 37.8 136.605 37.8C133.165 37.8 130.485 38.92 128.565 41.16C126.725 43.32 125.805 46.44 125.805 50.52V85.68H110.685V47.64C110.685 44.36 109.845 41.92 108.165 40.32C106.485 38.64 104.125 37.8 101.085 37.8C97.6447 37.8 94.9647 38.92 93.0447 41.16C91.2047 43.32 90.2847 46.44 90.2847 50.52V85.68H75.1647Z" fill="#151718"/>
<path d="M165.587 109.68V26.16H180.467V33.36H182.627C183.987 31.04 186.107 29 188.987 27.24C191.867 25.4 195.987 24.48 201.347 24.48C206.147 24.48 210.587 25.68 214.667 28.08C218.747 30.4 222.027 33.84 224.507 38.4C226.987 42.96 228.227 48.48 228.227 54.96V56.88C228.227 63.36 226.987 68.88 224.507 73.44C222.027 78 218.747 81.48 214.667 83.88C210.587 86.2 206.147 87.36 201.347 87.36C197.747 87.36 194.707 86.92 192.227 86.04C189.827 85.24 187.867 84.2 186.347 82.92C184.907 81.56 183.747 80.2 182.867 78.84H180.707V109.68H165.587ZM196.787 74.16C201.507 74.16 205.387 72.68 208.427 69.72C211.547 66.68 213.107 62.28 213.107 56.52V55.32C213.107 49.56 211.547 45.2 208.427 42.24C205.307 39.2 201.427 37.68 196.787 37.68C192.147 37.68 188.267 39.2 185.147 42.24C182.027 45.2 180.467 49.56 180.467 55.32V56.52C180.467 62.28 182.027 66.68 185.147 69.72C188.267 72.68 192.147 74.16 196.787 74.16Z" fill="#151718"/>
<path d="M230.11 85.68V1.68H245.23V85.68H230.11Z" fill="#151718"/>
<path d="M277.105 87.36C271.185 87.36 265.945 86.12 261.385 83.64C256.905 81.08 253.385 77.52 250.825 72.96C248.345 68.32 247.105 62.88 247.105 56.64V55.2C247.105 48.96 248.345 43.56 250.825 39C253.305 34.36 256.785 30.8 261.265 28.32C265.745 25.76 270.945 24.48 276.865 24.48C282.705 24.48 287.785 25.8 292.105 28.44C296.425 31 299.785 34.6 302.185 39.24C304.585 43.8 305.785 49.12 305.785 55.2V60.36H262.465C262.625 64.44 264.145 67.76 267.025 70.32C269.905 72.88 273.425 74.16 277.585 74.16C281.825 74.16 284.945 73.24 286.945 71.4C288.945 69.56 290.465 67.52 291.505 65.28L303.865 71.76C302.745 73.84 301.105 76.12 298.945 78.6C296.865 81 294.065 83.08 290.545 84.84C287.025 86.52 282.545 87.36 277.105 87.36ZM262.585 49.08H290.425C290.105 45.64 288.705 42.88 286.225 40.8C283.825 38.72 280.665 37.68 276.745 37.68C272.665 37.68 269.425 38.72 267.025 40.8C264.625 42.88 263.145 45.64 262.585 49.08Z" fill="#151718"/>
</g></svg>
