<svg width="462" height="154" viewBox="0 0 462 154" fill="none" xmlns="http://www.w3.org/2000/svg">
<g>
<path d="M221.12 153.36C215.76 153.36 211.64 152.44 208.76 150.6C205.88 148.76 203.76 146.72 202.4 144.48H200.24V151.68H185.36V67.6799H200.48V98.9999H202.64C203.52 97.5599 204.68 96.1999 206.12 94.9199C207.64 93.6399 209.6 92.5999 212 91.7999C214.48 90.9199 217.52 90.4799 221.12 90.4799C225.92 90.4799 230.36 91.6799 234.44 94.0799C238.52 96.3999 241.8 99.8399 244.28 104.4C246.76 108.96 248 114.48 248 120.96V122.88C248 129.36 246.76 134.88 244.28 139.44C241.8 144 238.52 147.48 234.44 149.88C230.36 152.2 225.92 153.36 221.12 153.36ZM216.56 140.16C221.2 140.16 225.08 138.68 228.2 135.72C231.32 132.68 232.88 128.28 232.88 122.52V121.32C232.88 115.56 231.32 111.2 228.2 108.24C225.16 105.2 221.28 103.68 216.56 103.68C211.92 103.68 208.04 105.2 204.92 108.24C201.8 111.2 200.24 115.56 200.24 121.32V122.52C200.24 128.28 201.8 132.68 204.92 135.72C208.04 138.68 211.92 140.16 216.56 140.16Z" fill="#4474B8"/>
<path d="M278.204 153.36C272.284 153.36 266.964 152.16 262.244 149.76C257.524 147.36 253.804 143.88 251.084 139.32C248.364 134.76 247.004 129.28 247.004 122.88V120.96C247.004 114.56 248.364 109.08 251.084 104.52C253.804 99.9599 257.524 96.4799 262.244 94.0799C266.964 91.6799 272.284 90.4799 278.204 90.4799C284.124 90.4799 289.444 91.6799 294.164 94.0799C298.884 96.4799 302.604 99.9599 305.324 104.52C308.044 109.08 309.404 114.56 309.404 120.96V122.88C309.404 129.28 308.044 134.76 305.324 139.32C302.604 143.88 298.884 147.36 294.164 149.76C289.444 152.16 284.124 153.36 278.204 153.36ZM278.204 139.92C282.844 139.92 286.684 138.44 289.724 135.48C292.764 132.44 294.284 128.12 294.284 122.52V121.32C294.284 115.72 292.764 111.44 289.724 108.48C286.764 105.44 282.924 103.92 278.204 103.92C273.564 103.92 269.724 105.44 266.684 108.48C263.644 111.44 262.124 115.72 262.124 121.32V122.52C262.124 128.12 263.644 132.44 266.684 135.48C269.724 138.44 273.564 139.92 278.204 139.92Z" fill="#4474B8"/>
<path d="M329.84 153.36C325.6 153.36 321.8 152.64 318.44 151.2C315.08 149.68 312.4 147.52 310.4 144.72C308.48 141.84 307.52 138.36 307.52 134.28C307.52 130.2 308.48 126.8 310.4 124.08C312.4 121.28 315.12 119.2 318.56 117.84C322.08 116.4 326.08 115.68 330.56 115.68H346.88V112.32C346.88 109.52 346 107.24 344.24 105.48C342.48 103.64 339.68 102.72 335.84 102.72C332.08 102.72 329.28 103.6 327.44 105.36C325.6 107.04 324.4 109.24 323.84 111.96L309.92 107.28C310.88 104.24 312.4 101.48 314.48 98.9999C316.64 96.4399 319.48 94.3999 323 92.8799C326.6 91.2799 330.96 90.4799 336.08 90.4799C343.92 90.4799 350.12 92.4399 354.68 96.3599C359.24 100.28 361.52 105.96 361.52 113.4V135.6C361.52 138 362.64 139.2 364.88 139.2H369.68V151.68H359.6C356.64 151.68 354.2 150.96 352.28 149.52C350.36 148.08 349.4 146.16 349.4 143.76V143.64H347.12C346.8 144.6 346.08 145.88 344.96 147.48C343.84 149 342.08 150.36 339.68 151.56C337.28 152.76 334 153.36 329.84 153.36ZM332.48 141.12C336.72 141.12 340.16 139.96 342.8 137.64C345.52 135.24 346.88 132.08 346.88 128.16V126.96H331.64C328.84 126.96 326.64 127.56 325.04 128.76C323.44 129.96 322.64 131.64 322.64 133.8C322.64 135.96 323.48 137.72 325.16 139.08C326.84 140.44 329.28 141.12 332.48 141.12Z" fill="#4474B8"/>
<path d="M368.735 151.68V92.1599H383.615V98.8799H385.775C386.655 96.4799 388.095 94.7199 390.095 93.5999C392.175 92.4799 394.575 91.9199 397.295 91.9199H404.495V105.36H397.055C393.215 105.36 390.055 106.4 387.575 108.48C385.095 110.48 383.855 113.6 383.855 117.84V151.68H368.735Z" fill="#4474B8"/>
<path d="M426.204 153.36C421.484 153.36 417.044 152.2 412.884 149.88C408.804 147.48 405.524 144 403.044 139.44C400.564 134.88 399.324 129.36 399.324 122.88V120.96C399.324 114.48 400.564 108.96 403.044 104.4C405.524 99.8399 408.804 96.3999 412.884 94.0799C416.964 91.6799 421.404 90.4799 426.204 90.4799C429.804 90.4799 432.804 90.9199 435.204 91.7999C437.684 92.5999 439.684 93.6399 441.204 94.9199C442.724 96.1999 443.884 97.5599 444.684 98.9999H446.844V67.6799H461.964V151.68H447.084V144.48H444.924C443.564 146.72 441.444 148.76 438.564 150.6C435.764 152.44 431.644 153.36 426.204 153.36ZM430.764 140.16C435.404 140.16 439.284 138.68 442.404 135.72C445.524 132.68 447.084 128.28 447.084 122.52V121.32C447.084 115.56 445.524 111.2 442.404 108.24C439.364 105.2 435.484 103.68 430.764 103.68C426.124 103.68 422.244 105.2 419.124 108.24C416.004 111.2 414.444 115.56 414.444 121.32V122.52C414.444 128.28 416.004 132.68 419.124 135.72C422.244 138.68 426.124 140.16 430.764 140.16Z" fill="#4474B8"/>
</g>
<g>
<path d="M29.08 87.36C21.32 87.36 14.96 85.68 10 82.32C5.04 78.96 2.04 74.16 1 67.92L14.92 64.32C15.48 67.12 16.4 69.32 17.68 70.92C19.04 72.52 20.68 73.68 22.6 74.4C24.6 75.04 26.76 75.36 29.08 75.36C32.6 75.36 35.2 74.76 36.88 73.56C38.56 72.28 39.4 70.72 39.4 68.88C39.4 67.04 38.6 65.64 37 64.68C35.4 63.64 32.84 62.8 29.32 62.16L25.96 61.56C21.8 60.76 18 59.68 14.56 58.32C11.12 56.88 8.36 54.92 6.28 52.44C4.2 49.96 3.16 46.76 3.16 42.84C3.16 36.92 5.32 32.4 9.64 29.28C13.96 26.08 19.64 24.48 26.68 24.48C33.32 24.48 38.84 25.96 43.24 28.92C47.64 31.88 50.52 35.76 51.88 40.56L37.84 44.88C37.2 41.84 35.88 39.68 33.88 38.4C31.96 37.12 29.56 36.48 26.68 36.48C23.8 36.48 21.6 37 20.08 38.04C18.56 39 17.8 40.36 17.8 42.12C17.8 44.04 18.6 45.48 20.2 46.44C21.8 47.32 23.96 48 26.68 48.48L30.04 49.08C34.52 49.88 38.56 50.96 42.16 52.32C45.84 53.6 48.72 55.48 50.8 57.96C52.96 60.36 54.04 63.64 54.04 67.8C54.04 74.04 51.76 78.88 47.2 82.32C42.72 85.68 36.68 87.36 29.08 87.36Z" fill="#151718"/>
<path d="M55.2897 85.68V26.16H70.4097V85.68H55.2897ZM62.8497 19.2C60.1297 19.2 57.8097 18.32 55.8897 16.56C54.0497 14.8 53.1297 12.48 53.1297 9.60001C53.1297 6.72 54.0497 4.4 55.8897 2.64C57.8097 0.880001 60.1297 0 62.8497 0C65.6497 0 67.9697 0.880001 69.8097 2.64C71.6497 4.4 72.5697 6.72 72.5697 9.60001C72.5697 12.48 71.6497 14.8 69.8097 16.56C67.9697 18.32 65.6497 19.2 62.8497 19.2Z" fill="#151718"/>
<path d="M75.1647 85.68V26.16H90.0447V32.64H92.2047C93.2447 30.64 94.9647 28.92 97.3647 27.48C99.7647 25.96 102.925 25.2 106.845 25.2C111.085 25.2 114.485 26.04 117.045 27.72C119.605 29.32 121.565 31.44 122.925 34.08H125.085C126.445 31.52 128.365 29.4 130.845 27.72C133.325 26.04 136.845 25.2 141.405 25.2C145.085 25.2 148.405 26 151.365 27.6C154.405 29.12 156.805 31.48 158.565 34.68C160.405 37.8 161.325 41.76 161.325 46.56V85.68H146.205V47.64C146.205 44.36 145.365 41.92 143.685 40.32C142.005 38.64 139.645 37.8 136.605 37.8C133.165 37.8 130.485 38.92 128.565 41.16C126.725 43.32 125.805 46.44 125.805 50.52V85.68H110.685V47.64C110.685 44.36 109.845 41.92 108.165 40.32C106.485 38.64 104.125 37.8 101.085 37.8C97.6447 37.8 94.9647 38.92 93.0447 41.16C91.2047 43.32 90.2847 46.44 90.2847 50.52V85.68H75.1647Z" fill="#151718"/>
<path d="M165.587 109.68V26.16H180.467V33.36H182.627C183.987 31.04 186.107 29 188.987 27.24C191.867 25.4 195.987 24.48 201.347 24.48C206.147 24.48 210.587 25.68 214.667 28.08C218.747 30.4 222.027 33.84 224.507 38.4C226.987 42.96 228.227 48.48 228.227 54.96V56.88C228.227 63.36 226.987 68.88 224.507 73.44C222.027 78 218.747 81.48 214.667 83.88C210.587 86.2 206.147 87.36 201.347 87.36C197.747 87.36 194.707 86.92 192.227 86.04C189.827 85.24 187.867 84.2 186.347 82.92C184.907 81.56 183.747 80.2 182.867 78.84H180.707V109.68H165.587ZM196.787 74.16C201.507 74.16 205.387 72.68 208.427 69.72C211.547 66.68 213.107 62.28 213.107 56.52V55.32C213.107 49.56 211.547 45.2 208.427 42.24C205.307 39.2 201.427 37.68 196.787 37.68C192.147 37.68 188.267 39.2 185.147 42.24C182.027 45.2 180.467 49.56 180.467 55.32V56.52C180.467 62.28 182.027 66.68 185.147 69.72C188.267 72.68 192.147 74.16 196.787 74.16Z" fill="#151718"/>
<path d="M230.11 85.68V1.68H245.23V85.68H230.11Z" fill="#151718"/>
<path d="M277.105 87.36C271.185 87.36 265.945 86.12 261.385 83.64C256.905 81.08 253.385 77.52 250.825 72.96C248.345 68.32 247.105 62.88 247.105 56.64V55.2C247.105 48.96 248.345 43.56 250.825 39C253.305 34.36 256.785 30.8 261.265 28.32C265.745 25.76 270.945 24.48 276.865 24.48C282.705 24.48 287.785 25.8 292.105 28.44C296.425 31 299.785 34.6 302.185 39.24C304.585 43.8 305.785 49.12 305.785 55.2V60.36H262.465C262.625 64.44 264.145 67.76 267.025 70.32C269.905 72.88 273.425 74.16 277.585 74.16C281.825 74.16 284.945 73.24 286.945 71.4C288.945 69.56 290.465 67.52 291.505 65.28L303.865 71.76C302.745 73.84 301.105 76.12 298.945 78.6C296.865 81 294.065 83.08 290.545 84.84C287.025 86.52 282.545 87.36 277.105 87.36ZM262.585 49.08H290.425C290.105 45.64 288.705 42.88 286.225 40.8C283.825 38.72 280.665 37.68 276.745 37.68C272.665 37.68 269.425 38.72 267.025 40.8C264.625 42.88 263.145 45.64 262.585 49.08Z" fill="#151718"/>
</g></svg>
