<svg width="401" height="176" viewBox="0 0 401 176" fill="none" xmlns="http://www.w3.org/2000/svg">
<g>
<path d="M182.479 122.16V120.24C182.479 114 183.719 108.68 186.199 104.28C188.679 99.7999 191.959 96.3999 196.039 94.0799C200.199 91.6799 204.719 90.4799 209.599 90.4799C215.039 90.4799 219.159 91.4399 221.959 93.3599C224.759 95.2799 226.799 97.2799 228.079 99.3599H230.239V92.1599H245.119V162.24C245.119 166.32 243.919 169.56 241.519 171.96C239.119 174.44 235.919 175.68 231.919 175.68H192.079V162.48H226.639C228.879 162.48 229.999 161.28 229.999 158.88V143.4H227.839C227.039 144.68 225.919 146 224.479 147.36C223.039 148.64 221.119 149.72 218.719 150.6C216.319 151.48 213.279 151.92 209.599 151.92C204.719 151.92 200.199 150.76 196.039 148.44C191.959 146.04 188.679 142.64 186.199 138.24C183.719 133.76 182.479 128.4 182.479 122.16ZM213.919 138.72C218.559 138.72 222.439 137.24 225.559 134.28C228.679 131.32 230.239 127.16 230.239 121.8V120.6C230.239 115.16 228.679 111 225.559 108.12C222.519 105.16 218.639 103.68 213.919 103.68C209.279 103.68 205.399 105.16 202.279 108.12C199.159 111 197.599 115.16 197.599 120.6V121.8C197.599 127.16 199.159 131.32 202.279 134.28C205.399 137.24 209.279 138.72 213.919 138.72Z" fill="#34B87E"/>
<path d="M249.883 151.68V92.1599H264.763V98.8799H266.923C267.803 96.4799 269.243 94.7199 271.243 93.5999C273.323 92.4799 275.723 91.9199 278.443 91.9199H285.643V105.36H278.203C274.363 105.36 271.203 106.4 268.723 108.48C266.243 110.48 265.003 113.6 265.003 117.84V151.68H249.883Z" fill="#34B87E"/>
<path d="M302.535 153.36C298.295 153.36 294.495 152.64 291.135 151.2C287.775 149.68 285.095 147.52 283.095 144.72C281.175 141.84 280.215 138.36 280.215 134.28C280.215 130.2 281.175 126.8 283.095 124.08C285.095 121.28 287.815 119.2 291.255 117.84C294.775 116.4 298.775 115.68 303.255 115.68H319.575V112.32C319.575 109.52 318.695 107.24 316.935 105.48C315.175 103.64 312.375 102.72 308.535 102.72C304.775 102.72 301.975 103.6 300.135 105.36C298.295 107.04 297.095 109.24 296.535 111.96L282.615 107.28C283.575 104.24 285.095 101.48 287.175 98.9999C289.335 96.4399 292.175 94.3999 295.695 92.8799C299.295 91.2799 303.655 90.4799 308.775 90.4799C316.615 90.4799 322.815 92.4399 327.375 96.3599C331.935 100.28 334.215 105.96 334.215 113.4V135.6C334.215 138 335.335 139.2 337.575 139.2H342.375V151.68H332.295C329.335 151.68 326.895 150.96 324.975 149.52C323.055 148.08 322.095 146.16 322.095 143.76V143.64H319.815C319.495 144.6 318.775 145.88 317.655 147.48C316.535 149 314.775 150.36 312.375 151.56C309.975 152.76 306.695 153.36 302.535 153.36ZM305.175 141.12C309.415 141.12 312.855 139.96 315.495 137.64C318.215 135.24 319.575 132.08 319.575 128.16V126.96H304.335C301.535 126.96 299.335 127.56 297.735 128.76C296.135 129.96 295.335 131.64 295.335 133.8C295.335 135.96 296.175 137.72 297.855 139.08C299.535 140.44 301.975 141.12 305.175 141.12Z" fill="#34B87E"/>
<path d="M364.258 153.36C359.538 153.36 355.098 152.2 350.938 149.88C346.858 147.48 343.578 144 341.098 139.44C338.618 134.88 337.378 129.36 337.378 122.88V120.96C337.378 114.48 338.618 108.96 341.098 104.4C343.578 99.8399 346.858 96.3999 350.938 94.0799C355.018 91.6799 359.458 90.4799 364.258 90.4799C367.858 90.4799 370.858 90.9199 373.258 91.7999C375.738 92.5999 377.738 93.6399 379.258 94.9199C380.778 96.1999 381.938 97.5599 382.738 98.9999H384.898V67.6799H400.018V151.68H385.138V144.48H382.978C381.618 146.72 379.498 148.76 376.618 150.6C373.818 152.44 369.698 153.36 364.258 153.36ZM368.818 140.16C373.458 140.16 377.338 138.68 380.458 135.72C383.578 132.68 385.138 128.28 385.138 122.52V121.32C385.138 115.56 383.578 111.2 380.458 108.24C377.418 105.2 373.538 103.68 368.818 103.68C364.178 103.68 360.298 105.2 357.178 108.24C354.058 111.2 352.498 115.56 352.498 121.32V122.52C352.498 128.28 354.058 132.68 357.178 135.72C360.298 138.68 364.178 140.16 368.818 140.16Z" fill="#34B87E"/>
</g>
<g>
<path d="M29.08 87.36C21.32 87.36 14.96 85.68 10 82.32C5.04 78.96 2.04 74.16 1 67.92L14.92 64.32C15.48 67.12 16.4 69.32 17.68 70.92C19.04 72.52 20.68 73.68 22.6 74.4C24.6 75.04 26.76 75.36 29.08 75.36C32.6 75.36 35.2 74.76 36.88 73.56C38.56 72.28 39.4 70.72 39.4 68.88C39.4 67.04 38.6 65.64 37 64.68C35.4 63.64 32.84 62.8 29.32 62.16L25.96 61.56C21.8 60.76 18 59.68 14.56 58.32C11.12 56.88 8.36 54.92 6.28 52.44C4.2 49.96 3.16 46.76 3.16 42.84C3.16 36.92 5.32 32.4 9.64 29.28C13.96 26.08 19.64 24.48 26.68 24.48C33.32 24.48 38.84 25.96 43.24 28.92C47.64 31.88 50.52 35.76 51.88 40.56L37.84 44.88C37.2 41.84 35.88 39.68 33.88 38.4C31.96 37.12 29.56 36.48 26.68 36.48C23.8 36.48 21.6 37 20.08 38.04C18.56 39 17.8 40.36 17.8 42.12C17.8 44.04 18.6 45.48 20.2 46.44C21.8 47.32 23.96 48 26.68 48.48L30.04 49.08C34.52 49.88 38.56 50.96 42.16 52.32C45.84 53.6 48.72 55.48 50.8 57.96C52.96 60.36 54.04 63.64 54.04 67.8C54.04 74.04 51.76 78.88 47.2 82.32C42.72 85.68 36.68 87.36 29.08 87.36Z" fill="#151718"/>
<path d="M55.2897 85.68V26.16H70.4097V85.68H55.2897ZM62.8497 19.2C60.1297 19.2 57.8097 18.32 55.8897 16.56C54.0497 14.8 53.1297 12.48 53.1297 9.60001C53.1297 6.72 54.0497 4.4 55.8897 2.64C57.8097 0.880001 60.1297 0 62.8497 0C65.6497 0 67.9697 0.880001 69.8097 2.64C71.6497 4.4 72.5697 6.72 72.5697 9.60001C72.5697 12.48 71.6497 14.8 69.8097 16.56C67.9697 18.32 65.6497 19.2 62.8497 19.2Z" fill="#151718"/>
<path d="M75.1647 85.68V26.16H90.0447V32.64H92.2047C93.2447 30.64 94.9647 28.92 97.3647 27.48C99.7647 25.96 102.925 25.2 106.845 25.2C111.085 25.2 114.485 26.04 117.045 27.72C119.605 29.32 121.565 31.44 122.925 34.08H125.085C126.445 31.52 128.365 29.4 130.845 27.72C133.325 26.04 136.845 25.2 141.405 25.2C145.085 25.2 148.405 26 151.365 27.6C154.405 29.12 156.805 31.48 158.565 34.68C160.405 37.8 161.325 41.76 161.325 46.56V85.68H146.205V47.64C146.205 44.36 145.365 41.92 143.685 40.32C142.005 38.64 139.645 37.8 136.605 37.8C133.165 37.8 130.485 38.92 128.565 41.16C126.725 43.32 125.805 46.44 125.805 50.52V85.68H110.685V47.64C110.685 44.36 109.845 41.92 108.165 40.32C106.485 38.64 104.125 37.8 101.085 37.8C97.6447 37.8 94.9647 38.92 93.0447 41.16C91.2047 43.32 90.2847 46.44 90.2847 50.52V85.68H75.1647Z" fill="#151718"/>
<path d="M165.587 109.68V26.16H180.467V33.36H182.627C183.987 31.04 186.107 29 188.987 27.24C191.867 25.4 195.987 24.48 201.347 24.48C206.147 24.48 210.587 25.68 214.667 28.08C218.747 30.4 222.027 33.84 224.507 38.4C226.987 42.96 228.227 48.48 228.227 54.96V56.88C228.227 63.36 226.987 68.88 224.507 73.44C222.027 78 218.747 81.48 214.667 83.88C210.587 86.2 206.147 87.36 201.347 87.36C197.747 87.36 194.707 86.92 192.227 86.04C189.827 85.24 187.867 84.2 186.347 82.92C184.907 81.56 183.747 80.2 182.867 78.84H180.707V109.68H165.587ZM196.787 74.16C201.507 74.16 205.387 72.68 208.427 69.72C211.547 66.68 213.107 62.28 213.107 56.52V55.32C213.107 49.56 211.547 45.2 208.427 42.24C205.307 39.2 201.427 37.68 196.787 37.68C192.147 37.68 188.267 39.2 185.147 42.24C182.027 45.2 180.467 49.56 180.467 55.32V56.52C180.467 62.28 182.027 66.68 185.147 69.72C188.267 72.68 192.147 74.16 196.787 74.16Z" fill="#151718"/>
<path d="M230.11 85.68V1.68H245.23V85.68H230.11Z" fill="#151718"/>
<path d="M277.105 87.36C271.185 87.36 265.945 86.12 261.385 83.64C256.905 81.08 253.385 77.52 250.825 72.96C248.345 68.32 247.105 62.88 247.105 56.64V55.2C247.105 48.96 248.345 43.56 250.825 39C253.305 34.36 256.785 30.8 261.265 28.32C265.745 25.76 270.945 24.48 276.865 24.48C282.705 24.48 287.785 25.8 292.105 28.44C296.425 31 299.785 34.6 302.185 39.24C304.585 43.8 305.785 49.12 305.785 55.2V60.36H262.465C262.625 64.44 264.145 67.76 267.025 70.32C269.905 72.88 273.425 74.16 277.585 74.16C281.825 74.16 284.945 73.24 286.945 71.4C288.945 69.56 290.465 67.52 291.505 65.28L303.865 71.76C302.745 73.84 301.105 76.12 298.945 78.6C296.865 81 294.065 83.08 290.545 84.84C287.025 86.52 282.545 87.36 277.105 87.36ZM262.585 49.08H290.425C290.105 45.64 288.705 42.88 286.225 40.8C283.825 38.72 280.665 37.68 276.745 37.68C272.665 37.68 269.425 38.72 267.025 40.8C264.625 42.88 263.145 45.64 262.585 49.08Z" fill="#151718"/>
</g></svg>
